<?xml version="1.0" standalone="no"?><!DOCTYPE svg PUBLIC "-//W3C//DTD SVG 1.1//EN" "http://www.w3.org/Graphics/SVG/1.1/DTD/svg11.dtd"><svg class="icon" width="200px" height="200.00px" viewBox="0 0 1024 1024" version="1.1" xmlns="http://www.w3.org/2000/svg"><path d="M178.59072 934.72768c-54.19008 0-98.28352-44.07808-98.28352-98.26816V187.56096c0-54.19008 44.09344-98.2784 98.28352-98.2784h431.68256c20.0448 0 36.352 16.31744 36.352 36.3776 0 20.00896-16.29696 36.3264-36.3264 36.36736l-427.29984 0.00512a29.98272 29.98272 0 0 0-29.94176 29.952v640.04608a29.98272 29.98272 0 0 0 29.94176 29.96224h663.39328a29.98272 29.98272 0 0 0 29.94176-29.96224V439.71072c0.12288-20.05504 16.44032-36.27008 36.37248-36.27008s36.2496 16.22528 36.37248 36.1728v396.83584c0 54.20032-44.0832 98.2784-98.28352 98.2784H178.59072z m158.08-175.80544a34.2528 34.2528 0 0 1-24.12032-9.8816c-8.75008-8.93952-12.04736-21.5808-8.87808-33.26976l43.08992-157.93152a19.4816 19.4816 0 0 1 5.03296-8.6784l419.65568-419.70688c13.89568-13.8752 32.81408-21.504 53.28896-21.504 22.95808 0 45.85472 9.73312 62.80192 26.71616l39.74144 39.77216c16.94208 16.92672 26.65984 39.79264 26.65984 62.73024 0.03072 20.49024-7.61856 39.43936-21.53472 53.33504l-419.64544 419.59936a19.46112 19.46112 0 0 1-8.75008 5.05856l-158.4128 42.58816a35.03104 35.03104 0 0 1-8.92928 1.17248z m48.768-82.88256l55.88992-15.20128-40.52992-40.52992-15.36 55.7312z m113.08032-54.69184l292.66432-292.70528-57.47712-58.36288-293.13024 293.14048 57.94304 57.92768zM844.36992 275.456l36.52608-36.51584c3.86048-3.85024 2.93888-11.27936-1.9968-16.24576l-39.71072-39.7312c-2.70848-2.69824-6.41536-4.33152-9.88672-4.33152-2.27328 0-4.37248 0.70656-5.888 1.99168-0.07168 0.06144-0.13824 0.12288-0.22016 0.18432l-36.29568 36.29056L844.36992 275.456z" fill="#040000" /></svg>